<mxfile host="app.diagrams.net" modified="2023-03-26T19:56:29.288Z" agent="Mozilla/5.0 (Windows NT 10.0; Win64; x64; rv:109.0) Gecko/20100101 Firefox/111.0" version="21.1.1" etag="qye0XzakgqcjWtIdFEeq" type="github">
  <diagram name="Page-1" id="nwmzDDg9rzGXQXywoVDp">
    <mxGraphModel>
      <root>
        <mxCell id="0" />
        <mxCell id="1" parent="0" />
      </root>
    </mxGraphModel>
  </diagram>
</mxfile>
